<svg id="Layer_1" enable-background="new 0 0 512 512" height="512" viewBox="0 0 512 512" width="512" xmlns="http://www.w3.org/2000/svg"><g><path d="m411.983 198.031-17.053-19.867 10.076-24.167c2.85-6.835.285-14.728-6.039-18.582l-22.36-13.626 2.119-26.093c.6-7.382-4.278-14.097-11.484-15.808l-25.471-6.05-6.05-25.479c-1.711-7.206-8.423-12.084-15.809-11.485l-26.101 2.12-13.626-22.36c-3.854-6.325-11.749-8.889-18.584-6.038l-24.166 10.072-19.866-17.051c-5.62-4.823-13.92-4.823-19.539 0l-19.865 17.051-24.165-10.081c-6.833-2.853-14.729-.288-18.584 6.038l-13.626 22.36-26.102-2.12c-7.378-.595-14.097 4.279-15.808 11.485l-6.05 25.479-25.471 6.05c-7.206 1.712-12.084 8.427-11.484 15.809l2.119 26.093-22.36 13.626c-6.324 3.854-8.889 11.747-6.039 18.582l10.077 24.167-17.055 19.875c-4.823 5.62-4.822 13.918.001 19.538l17.053 19.867-10.076 24.167c-2.85 6.835-.285 14.728 6.039 18.582l22.36 13.626-2.119 26.093c-.6 7.382 4.278 14.097 11.484 15.808l25.471 6.05 6.05 25.479c1.711 7.206 8.423 12.084 15.809 11.485l26.101-2.12 13.626 22.36c3.854 6.325 11.749 8.889 18.584 6.038l24.166-10.072 19.866 17.051c5.62 4.823 13.92 4.823 19.539 0l19.865-17.051 24.165 10.082c6.833 2.853 14.729.288 18.584-6.038l13.626-22.36 26.102 2.12c7.378.595 14.097-4.279 15.808-11.485l6.05-25.479 25.471-6.05c7.206-1.712 12.084-8.427 11.484-15.809l-2.119-26.093 22.36-13.626c6.324-3.854 8.889-11.747 6.039-18.582l-10.077-24.167 17.054-19.875c4.824-5.621 4.824-13.919 0-19.539z" fill="#ffec29"/><path d="m394.931 178.164 10.076-24.167c2.85-6.835.285-14.728-6.039-18.582l-22.36-13.626 2.119-26.093c.6-7.382-4.278-14.097-11.484-15.808l-25.471-6.05-6.05-25.479c-1.711-7.206-8.423-12.084-15.809-11.485l-26.101 2.12-13.626-22.36c-3.854-6.325-11.749-8.889-18.584-6.038l-24.166 10.072-19.867-17.051c-2.81-2.411-6.289-3.617-9.769-3.617v415.601c3.48 0 6.961-1.205 9.771-3.617l19.865-17.051 24.165 10.082c6.833 2.853 14.729.288 18.584-6.038l13.626-22.36 26.102 2.12c7.378.595 14.097-4.279 15.808-11.485l6.05-25.479 25.471-6.05c7.206-1.712 12.084-8.427 11.484-15.809l-2.119-26.093 22.36-13.626c6.324-3.854 8.889-11.747 6.039-18.582l-10.077-24.167 17.054-19.875c4.823-5.62 4.822-13.918-.001-19.538z" fill="#ffcb00"/><path d="m329.029 168.404c-1.553-4.78-5.396-8.464-10.238-9.813l-62.574-17.443-35.921-54.11c-2.78-4.187-7.471-6.704-12.497-6.704s-9.717 2.517-12.497 6.704l-35.921 54.11-62.574 17.443c-4.841 1.35-8.685 5.034-10.238 9.813s-.609 10.02 2.514 13.957l40.368 50.894-2.745 64.897c-.212 5.021 2.104 9.815 6.17 12.769 4.067 2.954 9.34 3.675 14.051 1.922l60.872-22.666 60.872 22.666c4.711 1.753 9.984 1.032 14.051-1.922 4.066-2.954 6.382-7.748 6.17-12.769l-2.745-64.897 40.368-50.894c3.124-3.937 4.068-9.177 2.514-13.957z" fill="#ffcb00"/><path d="m207.8 290.177 60.872 22.666c4.711 1.753 9.984 1.032 14.051-1.922 4.066-2.954 6.382-7.748 6.17-12.769l-2.745-64.897 40.368-50.894c3.123-3.938 4.067-9.177 2.514-13.957s-5.396-8.464-10.238-9.813l-62.574-17.443-35.921-54.11c-2.78-4.187-7.471-6.704-12.497-6.704z" fill="#ffa07a"/><path d="m438.195 507.606-68.988-68.987-37.594 37.593c-3.821 3.822-9.403 5.292-14.61 3.849-5.208-1.442-9.238-5.575-10.548-10.817l-48.2-192.8c-1.278-5.112.22-10.519 3.946-14.245s9.134-5.224 14.245-3.946l192.8 48.2c5.243 1.311 9.375 5.34 10.817 10.548 1.443 5.208-.028 10.789-3.849 14.61l-37.593 37.594 68.987 68.987c5.859 5.859 5.852 15.361 0 21.213l-48.2 48.2c-5.858 5.861-15.357 5.858-21.213.001z" fill="#f5fafa"/><path d="m438.621 369.206 37.593-37.594c3.821-3.821 5.292-9.402 3.849-14.61-1.442-5.208-5.575-9.237-10.817-10.548l-192.8-48.2c-5.11-1.278-10.519.22-14.245 3.946l221.307 221.307 24.1-24.1c5.852-5.852 5.859-15.354 0-21.213z" fill="#e1ebf0"/></g></svg>